<svg width="31" height="31" viewBox="0 0 31 31" fill="none" xmlns="http://www.w3.org/2000/svg">
<path d="M22.0141 3.66829L23.5221 5.12862L24.7622 3.93012C25.0815 3.62184 25.5146 3.44865 25.9661 3.44865C26.4176 3.44865 26.8507 3.62184 27.17 3.93012C27.4892 4.23839 27.6686 4.6565 27.6686 5.09247C27.6686 5.52844 27.4892 5.94655 27.17 6.25483L25.9287 7.45223L27.4411 8.90819C27.8745 9.32663 28.2183 9.82338 28.4528 10.3701C28.6874 10.9168 28.8081 11.5028 28.8081 12.0945C28.8081 12.6863 28.6874 13.2723 28.4528 13.819C28.2183 14.3657 27.8745 14.8624 27.4411 15.2809C27.0078 15.6993 26.4933 16.0312 25.927 16.2577C25.3608 16.4841 24.7539 16.6007 24.141 16.6007C23.5281 16.6007 22.9212 16.4841 22.355 16.2577C21.7887 16.0312 21.2742 15.6993 20.8409 15.2809L19.3329 13.8249L13.4475 19.503L14.96 20.959C15.3933 21.3774 15.7371 21.8742 15.9717 22.4209C16.2062 22.9676 16.3269 23.5536 16.3269 24.1453C16.3269 24.7371 16.2062 25.323 15.9717 25.8698C15.7371 26.4165 15.3933 26.9132 14.96 27.3317C14.0847 28.1767 12.8976 28.6515 11.6598 28.6515C10.422 28.6515 9.23494 28.1767 8.35969 27.3317L6.85173 25.8757L5.61156 27.0698C5.29227 27.3781 4.85923 27.5513 4.40769 27.5513C3.95615 27.5513 3.52311 27.3781 3.20382 27.0698C2.88454 26.7616 2.70517 26.3434 2.70517 25.9075C2.70517 25.4715 2.88454 25.0534 3.20382 24.7451L4.44514 23.5477L2.93264 22.0918C2.05739 21.2467 1.56568 20.1005 1.56568 18.9054C1.56568 17.7103 2.05739 16.5641 2.93264 15.7191C3.80789 14.874 4.99499 14.3993 6.23278 14.3993C7.47057 14.3993 8.65767 14.874 9.53292 15.7191L11.0397 17.175L16.9263 11.4914L15.4138 10.041C14.9804 9.62253 14.6367 9.12577 14.4021 8.57906C14.1676 8.03235 14.0469 7.44638 14.0469 6.85462C14.0469 6.26287 14.1676 5.6769 14.4021 5.13019C14.6367 4.58348 14.9804 4.08672 15.4138 3.66829C15.8472 3.24985 16.3617 2.91793 16.9279 2.69147C17.4942 2.46501 18.1011 2.34846 18.714 2.34846C19.3269 2.34846 19.9337 2.46501 20.5 2.69147C21.0662 2.91793 21.5807 3.24985 22.0141 3.66829V3.66829ZM5.34491 18.0471C5.11606 18.2791 4.98842 18.5872 4.98842 18.9076C4.98842 19.228 5.11606 19.5361 5.34491 19.7681L10.7617 25.0037C10.9987 25.2325 11.3201 25.361 11.6553 25.361C11.9904 25.361 12.3118 25.2325 12.5488 25.0037C12.7858 24.7749 12.9189 24.4645 12.9189 24.1409C12.9189 23.8174 12.7858 23.507 12.5488 23.2782L7.13086 18.0471C6.8945 17.8192 6.57416 17.6912 6.24016 17.6912C5.90615 17.6912 5.58581 17.8192 5.34945 18.0471H5.34491ZM17.8261 5.99628C17.5972 6.2283 17.4696 6.53642 17.4696 6.85682C17.4696 7.17721 17.5972 7.48534 17.8261 7.71735L23.2429 12.9529C23.4799 13.1817 23.8013 13.3102 24.1365 13.3102C24.4716 13.3102 24.793 13.1817 25.03 12.9529C25.267 12.7241 25.4001 12.4137 25.4001 12.0901C25.4001 11.7666 25.267 11.4562 25.03 11.2274L19.612 5.99628C19.3757 5.76842 19.0553 5.64044 18.7213 5.64044C18.3873 5.64044 18.067 5.76842 17.8306 5.99628H17.8261Z" fill="#A4A4A4"/>
</svg>
