<svg width="31" height="31" viewBox="0 0 31 31" fill="none" xmlns="http://www.w3.org/2000/svg">
<path fill-rule="evenodd" clip-rule="evenodd" d="M9.24414 3.66669C9.26273 3.66669 9.28138 3.66669 9.30009 3.66669L21.7561 3.66669C22.4316 3.66666 23.0263 3.66663 23.5185 3.70687C24.0421 3.74967 24.58 3.84535 25.1029 4.11175C25.8696 4.5024 26.4961 5.12599 26.8884 5.89594C27.1548 6.4187 27.2503 6.95688 27.293 7.47984C27.3332 7.97181 27.3332 8.56594 27.3332 9.24009V16.3715C27.3332 16.5282 27.3332 16.6742 27.3319 16.806C27.3283 17.1851 27.3161 17.5654 27.2198 17.9664C27.1196 18.3838 26.954 18.7825 26.7305 19.1471C26.4737 19.5662 26.1282 19.9111 25.7568 20.2818C25.7325 20.306 25.708 20.3304 25.6835 20.355L20.3548 25.6837C20.329 25.7095 20.3033 25.7352 20.2777 25.7608C19.9096 26.1298 19.5648 26.4753 19.147 26.7313C18.7831 26.9543 18.3852 27.1202 17.9668 27.2206C17.5648 27.3172 17.1829 27.3288 16.805 27.3322C16.6756 27.3334 16.5322 27.3334 16.3788 27.3334H9.23991C8.56576 27.3334 7.97163 27.3334 7.47966 27.2932C6.9567 27.2505 6.41852 27.1549 5.89576 26.8886C5.12658 26.4967 4.50261 25.8712 4.11156 25.1037C3.84511 24.5807 3.74947 24.0425 3.70669 23.519C3.66645 23.0266 3.66648 22.4318 3.66651 21.7563L3.66651 9.30028C3.66651 9.28157 3.66651 9.26292 3.66651 9.24433C3.66648 8.56879 3.66645 7.97375 3.70668 7.48117C3.74944 6.95762 3.84503 6.41904 4.11156 5.89594C4.50305 5.12761 5.12743 4.50323 5.89576 4.11175C6.41885 3.84522 6.95743 3.74963 7.48099 3.70686C7.97357 3.66663 8.5686 3.66666 9.24414 3.66669ZM7.7252 6.69691C7.38693 6.72454 7.28724 6.76973 7.25773 6.78477C7.05389 6.88863 6.88845 7.05407 6.78458 7.25791C6.76955 7.28743 6.72435 7.38712 6.69672 7.72539C6.66767 8.08107 6.66651 8.55214 6.66651 9.30028V21.7003C6.66651 22.4484 6.66767 22.9192 6.69672 23.2746C6.72433 23.6125 6.76947 23.7121 6.78458 23.7417C6.88888 23.9464 7.05474 24.1121 7.25773 24.2156C7.28703 24.2305 7.38642 24.2756 7.724 24.3032C8.07901 24.3322 8.54913 24.3334 9.29585 24.3334H15.2915L15.2915 18.8133C15.2915 18.491 15.2914 18.1656 15.3141 17.8879C15.3392 17.5798 15.3996 17.2008 15.5958 16.8158C15.8634 16.2905 16.2904 15.8636 16.8156 15.596C17.2004 15.3999 17.5791 15.3395 17.8873 15.3143C18.1649 15.2916 18.4901 15.2916 18.8124 15.2917L24.3332 15.2917V9.29603C24.3332 8.54931 24.332 8.0792 24.303 7.72419C24.2754 7.38661 24.2303 7.28722 24.2154 7.25791C24.1123 7.05569 23.9464 6.88946 23.7409 6.78477C23.7111 6.7696 23.6116 6.72449 23.2741 6.6969C22.9189 6.66786 22.4483 6.66669 21.7001 6.66669H9.30009C8.55195 6.66669 8.08089 6.66786 7.7252 6.69691ZM23.5041 18.2917H18.8577C18.5997 18.2917 18.4251 18.2922 18.2958 18.296C18.292 18.4254 18.2915 18.6003 18.2915 18.8585V23.5043L23.5041 18.2917Z" fill="#A4A4A4"/>
</svg>
