<svg width="31" height="31" viewBox="0 0 31 31" fill="none" xmlns="http://www.w3.org/2000/svg">
<path fill-rule="evenodd" clip-rule="evenodd" d="M9.24414 3.66666C9.26273 3.66666 9.28138 3.66666 9.30009 3.66666L21.7561 3.66666C22.4316 3.66663 23.0263 3.6666 23.5185 3.70684C24.0421 3.74964 24.58 3.84532 25.1029 4.11172C25.8696 4.50237 26.4961 5.12596 26.8884 5.89591C27.1548 6.41867 27.2503 6.95685 27.293 7.47981C27.3332 7.97178 27.3332 8.56591 27.3332 9.24006V16.3715C27.3332 16.5282 27.3332 16.6741 27.3319 16.8059C27.3283 17.1851 27.3161 17.5654 27.2198 17.9664C27.1196 18.3838 26.954 18.7825 26.7305 19.1471C26.4737 19.5661 26.1282 19.911 25.7568 20.2817C25.7325 20.306 25.708 20.3304 25.6835 20.3549L20.3548 25.6837C20.329 25.7095 20.3033 25.7352 20.2777 25.7608C19.9096 26.1297 19.5648 26.4752 19.147 26.7313C18.7831 26.9543 18.3852 27.1202 17.9668 27.2206C17.5648 27.3171 17.1829 27.3288 16.805 27.3322C16.6756 27.3333 16.5322 27.3333 16.3788 27.3333H9.23991C8.56576 27.3334 7.97163 27.3334 7.47966 27.2932C6.9567 27.2504 6.41852 27.1549 5.89576 26.8885C5.12658 26.4966 4.50261 25.8711 4.11156 25.1037C3.84511 24.5807 3.74947 24.0425 3.70669 23.519C3.66645 23.0266 3.66648 22.4317 3.66651 21.7563L3.66651 9.30025C3.66651 9.28154 3.66651 9.26289 3.66651 9.2443C3.66648 8.56876 3.66645 7.97372 3.70668 7.48114C3.74944 6.95759 3.84503 6.419 4.11156 5.89591C4.50305 5.12758 5.12743 4.5032 5.89576 4.11172C6.41885 3.84519 6.95743 3.7496 7.48099 3.70683C7.97357 3.6666 8.5686 3.66663 9.24414 3.66666ZM7.7252 6.69688C7.38693 6.72451 7.28724 6.7697 7.25773 6.78474C7.05389 6.8886 6.88845 7.05404 6.78458 7.25788C6.76955 7.2874 6.72435 7.38709 6.69672 7.72536C6.66767 8.08104 6.66651 8.55211 6.66651 9.30025V21.7002C6.66651 22.4484 6.66767 22.9192 6.69672 23.2746C6.72433 23.6124 6.76947 23.712 6.78458 23.7417C6.88888 23.9464 7.05474 24.1121 7.25773 24.2155C7.28703 24.2305 7.38642 24.2756 7.724 24.3032C8.07901 24.3322 8.54913 24.3333 9.29585 24.3333H15.2915L15.2915 18.8132C15.2915 18.4909 15.2914 18.1655 15.3141 17.8878C15.3392 17.5797 15.3996 17.2007 15.5958 16.8158C15.8634 16.2905 16.2904 15.8636 16.8156 15.5959C17.2004 15.3999 17.5791 15.3394 17.8873 15.3142C18.1649 15.2916 18.4901 15.2916 18.8124 15.2917L24.3332 15.2917V9.296C24.3332 8.54928 24.332 8.07917 24.303 7.72415C24.2754 7.38657 24.2303 7.28719 24.2154 7.25788C24.1123 7.05566 23.9464 6.88943 23.7409 6.78474C23.7111 6.76957 23.6116 6.72446 23.2741 6.69687C22.9189 6.66783 22.4483 6.66666 21.7001 6.66666H9.30009C8.55195 6.66666 8.08089 6.66783 7.7252 6.69688ZM23.5041 18.2917H18.8577C18.5997 18.2917 18.4251 18.2922 18.2958 18.2959C18.292 18.4254 18.2915 18.6002 18.2915 18.8585V23.5043L23.5041 18.2917Z" fill="white"/>
</svg>
