<svg width="31" height="31" viewBox="0 0 31 31" fill="none" xmlns="http://www.w3.org/2000/svg">
<path fill-rule="evenodd" clip-rule="evenodd" d="M3.875 4.95831C4.70343 4.95831 5.375 5.62989 5.375 6.45831V16.1727L7.89203 14.0752L7.90022 14.0685L7.93184 14.0421C8.35149 13.6924 8.72366 13.3822 9.05281 13.1446C9.40384 12.8911 9.78846 12.6575 10.25 12.5135C11.1638 12.2282 12.1478 12.2735 13.031 12.6399C13.478 12.8253 13.8402 13.0929 14.1673 13.3776C14.4741 13.6445 14.8173 13.9878 15.2048 14.3752L15.246 14.4165C15.6829 14.8534 15.9569 15.1262 16.1794 15.3194C16.3902 15.5026 16.4739 15.5408 16.5001 15.5515C16.7373 15.6481 17.0035 15.6572 17.2503 15.5753C17.2783 15.5661 17.3653 15.5329 17.5892 15.3633C17.8253 15.1844 18.1188 14.9289 18.5865 14.5196L26.1372 7.91278C26.7607 7.36726 27.7083 7.43043 28.2538 8.05389C28.7994 8.67734 28.7362 9.62499 28.1127 10.1705L20.5315 16.8041C20.1075 17.1751 19.7328 17.503 19.4009 17.7545C19.0487 18.0213 18.662 18.2678 18.1948 18.4228C17.2735 18.7284 16.2709 18.6975 15.3683 18.3298C14.913 18.1443 14.5443 17.8728 14.2121 17.5843C13.9003 17.3135 13.5516 16.9647 13.158 16.5712L13.1164 16.5295C12.6861 16.0992 12.4167 15.831 12.198 15.6407C11.9911 15.4607 11.9085 15.4221 11.8815 15.4109C11.6465 15.3135 11.3858 15.3017 11.144 15.3772C11.1164 15.3858 11.031 15.4165 10.8091 15.5767C10.5746 15.746 10.2828 15.9881 9.8167 16.3765L9.80855 16.3832L5.375 20.0778V21.7C5.375 22.4481 5.37617 22.9189 5.40521 23.2743C5.43282 23.612 5.47795 23.7116 5.49308 23.7413C5.59761 23.9465 5.7637 24.1123 5.96623 24.2155C5.99553 24.2304 6.09492 24.2755 6.4325 24.3031C6.78751 24.3321 7.25762 24.3333 8.00435 24.3333H27.1253C27.9537 24.3333 28.6253 25.0049 28.6253 25.8333C28.6253 26.6617 27.9537 27.3333 27.1253 27.3333H7.94849C7.27431 27.3333 6.68014 27.3334 6.18816 27.2932C5.66519 27.2504 5.12702 27.1549 4.60426 26.8885C3.83462 26.4964 3.21087 25.8703 2.82006 25.1033C2.55362 24.5803 2.45797 24.0422 2.41518 23.5186C2.37494 23.0263 2.37497 22.4315 2.375 21.756L2.375 6.45831C2.375 5.62989 3.04658 4.95831 3.875 4.95831Z" fill="#A4A4A4"/>
</svg>
